# xmcd CD database file
#
# Track frame offsets:
#	150
#	25942
#	65539
#	112468
#	137503
#	168999
#	194962
#	226178
#	245010
#	267089
#	312788
#
# Disc length: 4479 seconds
#
# Revision: 0
# Processed by: cddbd v1.5.1PL2 Copyright (c) Steve Scherf et al.
# Submitted via: Feurio! 1.68 - http://www.feurio.com
#
DISCID=a0117d0b
DTITLE=Jürgen Kehrt - Live im Franz - Club
DYEAR=1900
DGENRE=Blues
TTITLE0=Helmut
TTITLE1=Es geht immer was
TTITLE2=Come On
TTITLE3=Wenn Du nicht weisst
TTITLE4=Jügen Kehrt - Ganz befreit
TTITLE5=Jügen Kehrt - What's Going On
TTITLE6=An einem Tag wie diesem
TTITLE7=Instrumental
TTITLE8=Funk
TTITLE9=Red House
TTITLE10=Kindheit
EXTD=
EXTT0=
EXTT1=
EXTT2=
EXTT3=
EXTT4=
EXTT5=
EXTT6=
EXTT7=
EXTT8=
EXTT9=
EXTT10=
PLAYORDER=
